<?xml version="1.0" standalone="no"?>
<svg xmlns:xlink="http://www.w3.org/1999/xlink" id="wave" style="transform:rotate(0deg); transition: 0.3s" viewBox="0 0 1440 490" version="1.1" xmlns="http://www.w3.org/2000/svg"><defs><linearGradient id="sw-gradient-0" x1="0" x2="0" y1="1" y2="0"><stop stop-color="rgba(100.558, 209.82, 18.622, 1)" offset="0%"/><stop stop-color="rgba(84.19, 148.347, 61.749, 1)" offset="100%"/></linearGradient></defs><path style="transform:translate(0, 0px); opacity:1" fill="url(#sw-gradient-0)" d="M0,343L240,334.8C480,327,960,310,1440,253.2C1920,196,2400,98,2880,49C3360,0,3840,0,4320,40.8C4800,82,5280,163,5760,196C6240,229,6720,212,7200,236.8C7680,261,8160,327,8640,367.5C9120,408,9600,425,10080,424.7C10560,425,11040,408,11520,400.2C12000,392,12480,392,12960,326.7C13440,261,13920,131,14400,130.7C14880,131,15360,261,15840,269.5C16320,278,16800,163,17280,163.3C17760,163,18240,278,18720,310.3C19200,343,19680,294,20160,228.7C20640,163,21120,82,21600,98C22080,114,22560,229,23040,294C23520,359,24000,376,24480,318.5C24960,261,25440,131,25920,122.5C26400,114,26880,229,27360,285.8C27840,343,28320,343,28800,351.2C29280,359,29760,376,30240,351.2C30720,327,31200,261,31680,269.5C32160,278,32640,359,33120,400.2C33600,441,34080,441,34320,441L34560,441L34560,490L34320,490C34080,490,33600,490,33120,490C32640,490,32160,490,31680,490C31200,490,30720,490,30240,490C29760,490,29280,490,28800,490C28320,490,27840,490,27360,490C26880,490,26400,490,25920,490C25440,490,24960,490,24480,490C24000,490,23520,490,23040,490C22560,490,22080,490,21600,490C21120,490,20640,490,20160,490C19680,490,19200,490,18720,490C18240,490,17760,490,17280,490C16800,490,16320,490,15840,490C15360,490,14880,490,14400,490C13920,490,13440,490,12960,490C12480,490,12000,490,11520,490C11040,490,10560,490,10080,490C9600,490,9120,490,8640,490C8160,490,7680,490,7200,490C6720,490,6240,490,5760,490C5280,490,4800,490,4320,490C3840,490,3360,490,2880,490C2400,490,1920,490,1440,490C960,490,480,490,240,490L0,490Z"/></svg>