<?xml version="1.0" standalone="no"?>
<svg xmlns:xlink="http://www.w3.org/1999/xlink" id="wave" style="transform:rotate(180deg); transition: 0.3s" viewBox="0 0 1440 490" version="1.1" xmlns="http://www.w3.org/2000/svg"><defs><linearGradient id="sw-gradient-0" x1="0" x2="0" y1="1" y2="0"><stop stop-color="rgba(243, 106, 62, 1)" offset="0%"/><stop stop-color="rgba(255, 179, 11, 1)" offset="100%"/></linearGradient></defs><path style="transform:translate(0, 0px); opacity:1" fill="url(#sw-gradient-0)" d="M0,392L80,375.7C160,359,320,327,480,261.3C640,196,800,98,960,49C1120,0,1280,0,1440,32.7C1600,65,1760,131,1920,187.8C2080,245,2240,294,2400,334.8C2560,376,2720,408,2880,408.3C3040,408,3200,376,3360,302.2C3520,229,3680,114,3840,130.7C4000,147,4160,294,4320,334.8C4480,376,4640,310,4800,245C4960,180,5120,114,5280,81.7C5440,49,5600,49,5760,73.5C5920,98,6080,147,6240,196C6400,245,6560,294,6720,294C6880,294,7040,245,7200,220.5C7360,196,7520,196,7680,228.7C7840,261,8000,327,8160,334.8C8320,343,8480,294,8640,277.7C8800,261,8960,278,9120,253.2C9280,229,9440,163,9600,187.8C9760,212,9920,327,10080,367.5C10240,408,10400,376,10560,302.2C10720,229,10880,114,11040,114.3C11200,114,11360,229,11440,285.8L11520,343L11520,490L11440,490C11360,490,11200,490,11040,490C10880,490,10720,490,10560,490C10400,490,10240,490,10080,490C9920,490,9760,490,9600,490C9440,490,9280,490,9120,490C8960,490,8800,490,8640,490C8480,490,8320,490,8160,490C8000,490,7840,490,7680,490C7520,490,7360,490,7200,490C7040,490,6880,490,6720,490C6560,490,6400,490,6240,490C6080,490,5920,490,5760,490C5600,490,5440,490,5280,490C5120,490,4960,490,4800,490C4640,490,4480,490,4320,490C4160,490,4000,490,3840,490C3680,490,3520,490,3360,490C3200,490,3040,490,2880,490C2720,490,2560,490,2400,490C2240,490,2080,490,1920,490C1760,490,1600,490,1440,490C1280,490,1120,490,960,490C800,490,640,490,480,490C320,490,160,490,80,490L0,490Z"/></svg>