<!--?xml version="1.0" standalone="no"?-->
              <svg id="sw-js-blob-svg" viewBox="0 0 100 100" xmlns="http://www.w3.org/2000/svg" version="1.1">
                    <defs> 
                        <linearGradient id="sw-gradient" x1="0" x2="1" y1="1" y2="0">
                            <stop id="stop1" stop-color="rgba(248, 117, 55, 1)" offset="0%"></stop>
                            <stop id="stop2" stop-color="rgba(251, 168, 31, 1)" offset="100%"></stop>
                        </linearGradient>
                    </defs>
                <path fill="url(#sw-gradient)" d="M23.7,-31.3C30.4,-27.8,35.2,-20.4,38.4,-12.1C41.7,-3.8,43.2,5.4,39.7,11.9C36.1,18.4,27.5,22.2,20,24.9C12.6,27.6,6.3,29.3,-0.8,30.4C-7.9,31.5,-15.9,32.2,-22.2,29C-28.5,25.9,-33.1,19.1,-36.1,11.4C-39.1,3.7,-40.4,-4.9,-37,-11C-33.7,-17.1,-25.6,-20.7,-18.7,-24.2C-11.7,-27.7,-5.9,-31.1,1.3,-32.9C8.5,-34.8,17,-34.9,23.7,-31.3Z" width="100%" height="100%" transform="translate(50 50)" stroke-width="0" style="transition: all 0.3s ease 0s;"></path>
              </svg>